<svg id="visual" viewBox="0 0 960 540" width="960" height="540" xmlns="http://www.w3.org/2000/svg" xmlns:xlink="http://www.w3.org/1999/xlink" version="1.1"><rect x="0" y="0" width="960" height="540" fill="#001220"></rect><path d="M0 337L22.8 335C45.7 333 91.3 329 137 326C182.7 323 228.3 321 274 316.7C319.7 312.3 365.3 305.7 411.2 307.7C457 309.7 503 320.3 548.8 325.5C594.7 330.7 640.3 330.3 686 335C731.7 339.7 777.3 349.3 823 348C868.7 346.7 914.3 334.3 937.2 328.2L960 322L960 541L937.2 541C914.3 541 868.7 541 823 541C777.3 541 731.7 541 686 541C640.3 541 594.7 541 548.8 541C503 541 457 541 411.2 541C365.3 541 319.7 541 274 541C228.3 541 182.7 541 137 541C91.3 541 45.7 541 22.8 541L0 541Z" fill="#212a58"></path><path d="M0 368L22.8 372.5C45.7 377 91.3 386 137 386.7C182.7 387.3 228.3 379.7 274 380.5C319.7 381.3 365.3 390.7 411.2 394.2C457 397.7 503 395.3 548.8 390.5C594.7 385.7 640.3 378.3 686 370.5C731.7 362.7 777.3 354.3 823 350.5C868.7 346.7 914.3 347.3 937.2 347.7L960 348L960 541L937.2 541C914.3 541 868.7 541 823 541C777.3 541 731.7 541 686 541C640.3 541 594.7 541 548.8 541C503 541 457 541 411.2 541C365.3 541 319.7 541 274 541C228.3 541 182.7 541 137 541C91.3 541 45.7 541 22.8 541L0 541Z" fill="#1e2e73"></path><path d="M0 411L22.8 412.3C45.7 413.7 91.3 416.3 137 410.2C182.7 404 228.3 389 274 390.7C319.7 392.3 365.3 410.7 411.2 414.7C457 418.7 503 408.3 548.8 407.5C594.7 406.7 640.3 415.3 686 414.8C731.7 414.3 777.3 404.7 823 402.8C868.7 401 914.3 407 937.2 410L960 413L960 541L937.2 541C914.3 541 868.7 541 823 541C777.3 541 731.7 541 686 541C640.3 541 594.7 541 548.8 541C503 541 457 541 411.2 541C365.3 541 319.7 541 274 541C228.3 541 182.7 541 137 541C91.3 541 45.7 541 22.8 541L0 541Z" fill="#1b328f"></path><path d="M0 457L22.8 453.5C45.7 450 91.3 443 137 442.5C182.7 442 228.3 448 274 445.3C319.7 442.7 365.3 431.3 411.2 426.7C457 422 503 424 548.8 432.7C594.7 441.3 640.3 456.7 686 461.5C731.7 466.3 777.3 460.7 823 460.7C868.7 460.7 914.3 466.3 937.2 469.2L960 472L960 541L937.2 541C914.3 541 868.7 541 823 541C777.3 541 731.7 541 686 541C640.3 541 594.7 541 548.8 541C503 541 457 541 411.2 541C365.3 541 319.7 541 274 541C228.3 541 182.7 541 137 541C91.3 541 45.7 541 22.8 541L0 541Z" fill="#1c34ab"></path><path d="M0 512L22.8 510.7C45.7 509.3 91.3 506.7 137 501.2C182.7 495.7 228.3 487.3 274 480.8C319.7 474.3 365.3 469.7 411.2 469C457 468.3 503 471.7 548.8 473.3C594.7 475 640.3 475 686 478.7C731.7 482.3 777.3 489.7 823 494.5C868.7 499.3 914.3 501.7 937.2 502.8L960 504L960 541L937.2 541C914.3 541 868.7 541 823 541C777.3 541 731.7 541 686 541C640.3 541 594.7 541 548.8 541C503 541 457 541 411.2 541C365.3 541 319.7 541 274 541C228.3 541 182.7 541 137 541C91.3 541 45.7 541 22.8 541L0 541Z" fill="#2435c7"></path></svg>